<svg width="685" height="690" xmlns="http://www.w3.org/2000/svg" xmlns:xlink="http://www.w3.org/1999/xlink" xml:space="preserve" overflow="hidden"><g transform="translate(-657 -363)"><rect x="660.5" y="366.5" width="678" height="683" stroke="#000000" stroke-width="6.875" stroke-miterlimit="8" fill="none"/><rect x="677" y="383" width="189" height="189" stroke="#FFFFFF" stroke-width="27.5" stroke-miterlimit="8"/><text fill="#FFFFFF" font-family="Yu Gothic,Yu Gothic_MSFontService,sans-serif" font-weight="400" font-size="83" transform="matrix(1 0 0 1 748.802 504)">1</text><rect x="677" y="612" width="189" height="190" stroke="#FFFFFF" stroke-width="27.5" stroke-miterlimit="8"/><text fill="#FFFFFF" font-family="Yu Gothic,Yu Gothic_MSFontService,sans-serif" font-weight="400" font-size="83" transform="matrix(1 0 0 1 748.802 733)">6</text><rect x="677" y="840" width="189" height="190" stroke="#FFFFFF" stroke-width="27.5" stroke-miterlimit="8"/><text fill="#FFFFFF" font-family="Yu Gothic,Yu Gothic_MSFontService,sans-serif" font-weight="400" font-size="83" transform="matrix(1 0 0 1 748.802 961)">3</text><rect x="904" y="383" width="189" height="189" stroke="#FFFFFF" stroke-width="27.5" stroke-miterlimit="8"/><text fill="#FFFFFF" font-family="Yu Gothic,Yu Gothic_MSFontService,sans-serif" font-weight="400" font-size="83" transform="matrix(1 0 0 1 975.677 504)">8</text><rect x="904" y="612" width="189" height="190" stroke="#FFFFFF" stroke-width="27.5" stroke-miterlimit="8"/><text fill="#FFFFFF" font-family="Yu Gothic,Yu Gothic_MSFontService,sans-serif" font-weight="400" font-size="83" transform="matrix(1 0 0 1 975.677 733)">5</text><rect x="904" y="840" width="189" height="190" stroke="#FFFFFF" stroke-width="27.5" stroke-miterlimit="8"/><text fill="#FFFFFF" font-family="Yu Gothic,Yu Gothic_MSFontService,sans-serif" font-weight="400" font-size="83" transform="matrix(1 0 0 1 975.677 961)">9</text><rect x="1131" y="383" width="189" height="189" stroke="#FFFFFF" stroke-width="27.5" stroke-miterlimit="8"/><text fill="#FFFFFF" font-family="Yu Gothic,Yu Gothic_MSFontService,sans-serif" font-weight="400" font-size="83" transform="matrix(1 0 0 1 1202.55 504)">4</text><rect x="1131" y="612" width="189" height="190" stroke="#FFFFFF" stroke-width="27.5" stroke-miterlimit="8"/><text fill="#FFFFFF" font-family="Yu Gothic,Yu Gothic_MSFontService,sans-serif" font-weight="400" font-size="83" transform="matrix(1 0 0 1 1202.55 733)">7</text><rect x="1131" y="840" width="189" height="190" stroke="#FFFFFF" stroke-width="27.5" stroke-miterlimit="8"/><text fill="#FFFFFF" font-family="Yu Gothic,Yu Gothic_MSFontService,sans-serif" font-weight="400" font-size="83" transform="matrix(1 0 0 1 1202.55 961)">2</text></g></svg>